  <?xml version="1.0" encoding="UTF-8"?>
  <svg xmlns="http://www.w3.org/2000/svg" xmlns:xlink="http://www.w3.org/1999/xlink" class="inline-block w-7 h-7 ltr:mr-2 rtl:ml-2 -mt-1" viewBox="0 0 28 28" version="1.1">
  <g id="surface1">
  <path class="fill-red-500" d="M 13.152344 0.523438 C 12.359375 0.6875 11.746094 0.933594 11.128906 1.335938 C 8.980469 2.734375 8.207031 5.492188 9.324219 7.792969 C 10.6875 10.613281 14.285156 11.589844 16.894531 9.839844 C 17.949219 9.132812 18.707031 8.070312 19.035156 6.835938 C 19.195312 6.234375 19.210938 5.042969 19.070312 4.460938 C 18.566406 2.460938 17.058594 1 15.039062 0.570312 C 14.710938 0.496094 13.425781 0.46875 13.152344 0.523438 Z M 13.152344 0.523438 "/>
  <path class="fill-red-700" d="M 9.898438 10.585938 C 7.421875 11.417969 5.546875 13.535156 5.035156 16.066406 C 4.976562 16.355469 4.921875 16.71875 4.910156 16.871094 L 4.898438 17.144531 L 5.117188 17.160156 L 5.34375 17.175781 L 5.382812 16.65625 C 5.484375 15.257812 6.03125 14.070312 6.988281 13.175781 C 8.015625 12.210938 9.242188 11.757812 10.609375 11.828125 C 11.734375 11.890625 12.78125 12.316406 13.710938 13.109375 L 13.996094 13.347656 L 14.351562 13.054688 C 14.972656 12.546875 15.734375 12.144531 16.488281 11.945312 C 17.066406 11.789062 18.304688 11.800781 18.882812 11.964844 C 19.746094 12.210938 20.414062 12.601562 21.070312 13.230469 C 21.980469 14.097656 22.519531 15.296875 22.617188 16.65625 L 22.65625 17.175781 L 22.882812 17.160156 L 23.101562 17.144531 L 23.089844 16.871094 C 23.0625 16.460938 22.875 15.585938 22.71875 15.136719 C 21.933594 12.964844 20.25 11.308594 18.089844 10.582031 L 17.539062 10.394531 L 17.296875 10.566406 C 16.898438 10.839844 16.0625 11.207031 15.492188 11.359375 C 15.011719 11.488281 14.859375 11.5 14 11.5 C 13.140625 11.5 12.988281 11.488281 12.507812 11.359375 C 11.9375 11.207031 11.101562 10.839844 10.703125 10.566406 L 10.460938 10.394531 Z M 9.898438 10.585938 "/>
  <path class="fill-indigo-500" d="M 9.40625 12.746094 C 7.570312 13.230469 6.347656 14.726562 6.203125 16.691406 L 6.164062 17.171875 L 6.949219 17.171875 C 7.488281 17.171875 7.847656 17.199219 8.066406 17.253906 C 9.476562 17.625 10.417969 19.046875 10.183594 20.464844 C 10.058594 21.214844 9.566406 21.984375 8.96875 22.371094 L 8.699219 22.546875 L 9.035156 22.917969 C 9.429688 23.367188 10.265625 24.148438 11.621094 25.347656 C 12.164062 25.824219 12.917969 26.507812 13.304688 26.867188 L 14 27.519531 L 14.425781 27.121094 C 14.65625 26.894531 15.417969 26.210938 16.105469 25.597656 C 17.761719 24.121094 18.5625 23.378906 18.964844 22.917969 L 19.304688 22.542969 L 19.03125 22.367188 C 18.292969 21.890625 17.773438 20.921875 17.773438 20.015625 C 17.773438 18.742188 18.6875 17.582031 19.945312 17.253906 C 20.152344 17.199219 20.523438 17.171875 21.050781 17.171875 L 21.835938 17.171875 L 21.796875 16.691406 C 21.75 16.027344 21.632812 15.585938 21.355469 15.011719 C 20.796875 13.859375 19.796875 13.046875 18.539062 12.738281 C 17.6875 12.523438 16.636719 12.648438 15.800781 13.074219 C 15.351562 13.300781 14.65625 13.839844 14.3125 14.230469 L 14.011719 14.570312 L 13.585938 14.132812 C 12.847656 13.371094 12.03125 12.894531 11.160156 12.710938 C 10.648438 12.601562 9.898438 12.617188 9.40625 12.746094 Z M 14.488281 17.527344 C 14.929688 18.550781 14.957031 18.59375 15.117188 18.621094 C 15.207031 18.632812 15.726562 18.6875 16.269531 18.730469 C 16.8125 18.78125 17.277344 18.824219 17.296875 18.828125 C 17.335938 18.839844 16.027344 20.03125 15.609375 20.371094 C 15.558594 20.414062 15.601562 20.683594 15.804688 21.574219 C 15.945312 22.203125 16.054688 22.726562 16.050781 22.738281 C 16.046875 22.746094 15.582031 22.480469 15.015625 22.148438 L 14 21.546875 L 12.984375 22.152344 C 12.425781 22.488281 11.960938 22.75 11.953125 22.738281 C 11.945312 22.734375 12.054688 22.203125 12.199219 21.574219 C 12.453125 20.46875 12.457031 20.421875 12.359375 20.339844 C 11.375 19.484375 10.664062 18.839844 10.703125 18.828125 C 10.722656 18.824219 11.1875 18.78125 11.730469 18.730469 C 12.273438 18.6875 12.792969 18.632812 12.882812 18.621094 C 13.042969 18.59375 13.070312 18.550781 13.507812 17.527344 C 13.757812 16.941406 13.984375 16.460938 14 16.460938 C 14.015625 16.460938 14.234375 16.941406 14.488281 17.527344 Z M 14.488281 17.527344 "/>
  <path class="fill-red-500" d="M 4.867188 19.757812 C 4.867188 22.191406 4.757812 22.050781 6.644531 22.027344 L 7.902344 22.011719 L 8.230469 21.851562 C 9.777344 21.09375 9.777344 18.9375 8.230469 18.179688 L 7.902344 18.019531 L 6.386719 18.003906 L 4.867188 17.988281 Z M 4.867188 19.757812 "/>
  <path class="fill-red-500" d="M 19.988281 18.089844 C 19.363281 18.308594 18.898438 18.785156 18.703125 19.410156 C 18.566406 19.847656 18.566406 20.183594 18.703125 20.621094 C 18.84375 21.070312 19.117188 21.4375 19.492188 21.6875 C 19.964844 22.007812 20.164062 22.039062 21.460938 22.039062 C 22.726562 22.039062 22.800781 22.023438 23.007812 21.714844 C 23.132812 21.53125 23.132812 21.515625 23.132812 19.765625 L 23.132812 17.992188 L 21.699219 17.992188 C 20.480469 17.996094 20.21875 18.007812 19.988281 18.089844 Z M 19.988281 18.089844 "/>
  </g>
</svg>
